<?xml version="1.0" encoding="utf-8" standalone="no"?>
<!DOCTYPE svg PUBLIC "-//W3C//DTD SVG 1.1//EN"
  "http://www.w3.org/Graphics/SVG/1.1/DTD/svg11.dtd">
<svg xmlns:xlink="http://www.w3.org/1999/xlink" width="460.8pt" height="345.6pt" viewBox="0 0 460.8 345.6" xmlns="http://www.w3.org/2000/svg" version="1.1">
 <metadata>
  <rdf:RDF xmlns:dc="http://purl.org/dc/elements/1.1/" xmlns:cc="http://creativecommons.org/ns#" xmlns:rdf="http://www.w3.org/1999/02/22-rdf-syntax-ns#">
   <cc:Work>
    <dc:type rdf:resource="http://purl.org/dc/dcmitype/StillImage"/>
    <dc:date>2022-12-02T15:16:45.581269</dc:date>
    <dc:format>image/svg+xml</dc:format>
    <dc:creator>
     <cc:Agent>
      <dc:title>Matplotlib v3.5.3, https://matplotlib.org/</dc:title>
     </cc:Agent>
    </dc:creator>
   </cc:Work>
  </rdf:RDF>
 </metadata>
 <defs>
  <style type="text/css">*{stroke-linejoin: round; stroke-linecap: butt}</style>
 </defs>
 <g id="figure_1">
  <g id="patch_1">
   <path d="M 0 345.6 
L 460.8 345.6 
L 460.8 0 
L 0 0 
z
" style="fill: #ffffff"/>
  </g>
  <g id="axes_1">
   <g id="patch_2">
    <path d="M 57.6 307.584 
L 414.72 307.584 
L 414.72 41.472 
L 57.6 41.472 
z
" style="fill: #ffffff"/>
   </g>
   <g id="matplotlib.axis_1">
    <g id="xtick_1">
     <g id="line2d_1">
      <defs>
       <path id="mc92d01bfb3" d="M 0 0 
L 0 3.5 
" style="stroke: #000000; stroke-width: 0.8"/>
      </defs>
      <g>
       <use xlink:href="#mc92d01bfb3" x="73.832727" y="307.584" style="stroke: #000000; stroke-width: 0.8"/>
      </g>
     </g>
     <g id="text_1">
      <!-- $\mathdefault{10^{9}}$ -->
      <g transform="translate(66.865773 321.502498)scale(0.1 -0.1)">
       <defs>
        <path id="CMR17-31" d="M 1702 4083 
C 1702 4217 1696 4224 1606 4224 
C 1357 3927 979 3833 621 3820 
C 602 3820 570 3820 563 3808 
C 557 3795 557 3782 557 3648 
C 755 3648 1088 3686 1344 3839 
L 1344 467 
C 1344 243 1331 166 781 166 
L 589 166 
L 589 0 
C 896 6 1216 12 1523 12 
C 1830 12 2150 6 2458 0 
L 2458 166 
L 2266 166 
C 1715 166 1702 236 1702 467 
L 1702 4083 
z
" transform="scale(0.015625)"/>
        <path id="CMR17-30" d="M 2688 2038 
C 2688 2430 2682 3099 2413 3613 
C 2176 4063 1798 4224 1466 4224 
C 1158 4224 768 4082 525 3620 
C 269 3137 243 2539 243 2038 
C 243 1671 250 1112 448 623 
C 723 -39 1216 -128 1466 -128 
C 1760 -128 2208 -7 2470 604 
C 2662 1048 2688 1568 2688 2038 
z
M 1466 -26 
C 1056 -26 813 328 723 816 
C 653 1196 653 1749 653 2109 
C 653 2604 653 3015 736 3407 
C 858 3954 1216 4121 1466 4121 
C 1728 4121 2067 3947 2189 3420 
C 2272 3054 2278 2623 2278 2109 
C 2278 1691 2278 1176 2202 797 
C 2067 96 1690 -26 1466 -26 
z
" transform="scale(0.015625)"/>
        <path id="CMR17-39" d="M 2253 1871 
C 2253 448 1670 25 1190 25 
C 1043 25 685 43 538 281 
C 704 256 826 345 826 505 
C 826 678 685 736 595 736 
C 538 736 365 710 365 492 
C 365 68 742 -128 1203 -128 
C 1939 -128 2688 665 2688 2090 
C 2688 3857 1971 4224 1485 4224 
C 851 4224 243 3664 243 2800 
C 243 2000 762 1408 1414 1408 
C 1952 1408 2189 1910 2253 2122 
L 2253 1871 
z
M 1427 1510 
C 1254 1510 1011 1542 813 1929 
C 678 2181 678 2477 678 2793 
C 678 3174 678 3438 858 3722 
C 947 3857 1114 4076 1485 4076 
C 2240 4076 2240 2909 2240 2651 
C 2240 2193 2035 1510 1427 1510 
z
" transform="scale(0.015625)"/>
       </defs>
       <use xlink:href="#CMR17-31" transform="scale(0.996264)"/>
       <use xlink:href="#CMR17-30" transform="translate(45.690477 0)scale(0.996264)"/>
       <use xlink:href="#CMR17-39" transform="translate(91.380954 36.153639)scale(0.697382)"/>
      </g>
     </g>
    </g>
    <g id="xtick_2">
     <g id="line2d_2">
      <g>
       <use xlink:href="#mc92d01bfb3" x="182.050909" y="307.584" style="stroke: #000000; stroke-width: 0.8"/>
      </g>
     </g>
     <g id="text_2">
      <!-- $\mathdefault{2\times10^{9}}$ -->
      <g transform="translate(166.50505 321.586655)scale(0.1 -0.1)">
       <defs>
        <path id="CMR17-32" d="M 2669 990 
L 2554 990 
C 2490 537 2438 460 2413 422 
C 2381 371 1920 371 1830 371 
L 602 371 
C 832 620 1280 1073 1824 1596 
C 2214 1966 2669 2400 2669 3033 
C 2669 3788 2067 4224 1395 4224 
C 691 4224 262 3603 262 3027 
C 262 2777 448 2745 525 2745 
C 589 2745 781 2783 781 3007 
C 781 3206 614 3264 525 3264 
C 486 3264 448 3257 422 3244 
C 544 3788 915 4057 1306 4057 
C 1862 4057 2227 3616 2227 3033 
C 2227 2477 1901 1998 1536 1583 
L 262 147 
L 262 0 
L 2515 0 
L 2669 990 
z
" transform="scale(0.015625)"/>
        <path id="CMSY10-2" d="M 2490 1775 
L 1210 3046 
C 1133 3123 1120 3136 1069 3136 
C 1005 3136 941 3078 941 3008 
C 941 2963 954 2950 1024 2880 
L 2304 1596 
L 1024 313 
C 954 243 941 230 941 185 
C 941 115 1005 57 1069 57 
C 1120 57 1133 70 1210 147 
L 2483 1418 
L 3808 95 
C 3821 89 3866 57 3904 57 
C 3981 57 4032 115 4032 185 
C 4032 198 4032 223 4013 255 
C 4006 268 2989 1271 2669 1596 
L 3840 2765 
C 3872 2803 3968 2886 4000 2925 
C 4006 2937 4032 2963 4032 3008 
C 4032 3078 3981 3136 3904 3136 
C 3853 3136 3827 3110 3757 3040 
L 2490 1775 
z
" transform="scale(0.015625)"/>
       </defs>
       <use xlink:href="#CMR17-32" transform="scale(0.996264)"/>
       <use xlink:href="#CMSY10-2" transform="translate(67.829684 0)scale(0.996264)"/>
       <use xlink:href="#CMR17-31" transform="translate(167.456359 0)scale(0.996264)"/>
       <use xlink:href="#CMR17-30" transform="translate(213.146836 0)scale(0.996264)"/>
       <use xlink:href="#CMR17-39" transform="translate(258.837313 36.153639)scale(0.697382)"/>
      </g>
     </g>
    </g>
    <g id="xtick_3">
     <g id="line2d_3">
      <g>
       <use xlink:href="#mc92d01bfb3" x="290.269091" y="307.584" style="stroke: #000000; stroke-width: 0.8"/>
      </g>
     </g>
     <g id="text_3">
      <!-- $\mathdefault{4\times10^{9}}$ -->
      <g transform="translate(274.723231 321.586655)scale(0.1 -0.1)">
       <defs>
        <path id="CMR17-34" d="M 2150 4147 
C 2150 4281 2144 4288 2029 4288 
L 128 1254 
L 128 1088 
L 1779 1088 
L 1779 460 
C 1779 230 1766 166 1318 166 
L 1197 166 
L 1197 0 
C 1402 12 1747 12 1965 12 
C 2182 12 2528 12 2733 0 
L 2733 166 
L 2611 166 
C 2163 166 2150 230 2150 460 
L 2150 1088 
L 2803 1088 
L 2803 1254 
L 2150 1254 
L 2150 4147 
z
M 1798 3723 
L 1798 1254 
L 256 1254 
L 1798 3723 
z
" transform="scale(0.015625)"/>
       </defs>
       <use xlink:href="#CMR17-34" transform="scale(0.996264)"/>
       <use xlink:href="#CMSY10-2" transform="translate(67.829684 0)scale(0.996264)"/>
       <use xlink:href="#CMR17-31" transform="translate(167.456359 0)scale(0.996264)"/>
       <use xlink:href="#CMR17-30" transform="translate(213.146836 0)scale(0.996264)"/>
       <use xlink:href="#CMR17-39" transform="translate(258.837313 36.153639)scale(0.697382)"/>
      </g>
     </g>
    </g>
    <g id="xtick_4">
     <g id="line2d_4">
      <g>
       <use xlink:href="#mc92d01bfb3" x="398.487273" y="307.584" style="stroke: #000000; stroke-width: 0.8"/>
      </g>
     </g>
    </g>
    <g id="xtick_5">
     <g id="line2d_5">
      <defs>
       <path id="mb9f2fcd4e1" d="M 0 0 
L 0 2 
" style="stroke: #000000; stroke-width: 0.6"/>
      </defs>
      <g>
       <use xlink:href="#mb9f2fcd4e1" x="245.354487" y="307.584" style="stroke: #000000; stroke-width: 0.6"/>
      </g>
     </g>
     <g id="text_4">
      <!-- $\mathdefault{3\times10^{9}}$ -->
      <g transform="translate(229.808628 319.986655)scale(0.1 -0.1)">
       <defs>
        <path id="CMR17-33" d="M 1414 2176 
C 1984 2176 2234 1673 2234 1094 
C 2234 322 1824 25 1453 25 
C 1114 25 563 193 390 691 
C 422 678 454 678 486 678 
C 640 678 755 780 755 947 
C 755 1132 614 1216 486 1216 
C 378 1216 211 1164 211 927 
C 211 335 787 -128 1466 -128 
C 2176 -128 2720 432 2720 1087 
C 2720 1718 2208 2176 1600 2246 
C 2086 2347 2554 2776 2554 3353 
C 2554 3856 2048 4224 1472 4224 
C 890 4224 378 3862 378 3347 
C 378 3123 544 3084 627 3084 
C 762 3084 877 3167 877 3334 
C 877 3500 762 3584 627 3584 
C 602 3584 570 3584 544 3571 
C 730 3999 1235 4076 1459 4076 
C 1683 4076 2106 3966 2106 3347 
C 2106 3167 2080 2851 1862 2574 
C 1670 2329 1453 2316 1242 2297 
C 1210 2297 1062 2284 1037 2284 
C 992 2278 966 2272 966 2227 
C 966 2182 973 2176 1101 2176 
L 1414 2176 
z
" transform="scale(0.015625)"/>
       </defs>
       <use xlink:href="#CMR17-33" transform="scale(0.996264)"/>
       <use xlink:href="#CMSY10-2" transform="translate(67.829684 0)scale(0.996264)"/>
       <use xlink:href="#CMR17-31" transform="translate(167.456359 0)scale(0.996264)"/>
       <use xlink:href="#CMR17-30" transform="translate(213.146836 0)scale(0.996264)"/>
       <use xlink:href="#CMR17-39" transform="translate(258.837313 36.153639)scale(0.697382)"/>
      </g>
     </g>
    </g>
    <g id="xtick_6">
     <g id="line2d_6">
      <g>
       <use xlink:href="#mb9f2fcd4e1" x="325.107564" y="307.584" style="stroke: #000000; stroke-width: 0.6"/>
      </g>
     </g>
    </g>
    <g id="xtick_7">
     <g id="line2d_7">
      <g>
       <use xlink:href="#mb9f2fcd4e1" x="353.572669" y="307.584" style="stroke: #000000; stroke-width: 0.6"/>
      </g>
     </g>
     <g id="text_5">
      <!-- $\mathdefault{6\times10^{9}}$ -->
      <g transform="translate(338.02681 319.986655)scale(0.1 -0.1)">
       <defs>
        <path id="CMR17-36" d="M 678 2198 
C 678 3712 1395 4076 1811 4076 
C 1946 4076 2272 4049 2400 3782 
C 2298 3782 2106 3782 2106 3558 
C 2106 3385 2246 3328 2336 3328 
C 2394 3328 2566 3353 2566 3571 
C 2566 3987 2246 4224 1805 4224 
C 1043 4224 243 3411 243 2011 
C 243 257 966 -128 1478 -128 
C 2099 -128 2688 431 2688 1295 
C 2688 2101 2170 2688 1517 2688 
C 1126 2688 838 2430 678 1979 
L 678 2198 
z
M 1478 25 
C 691 25 691 1212 691 1450 
C 691 1914 909 2585 1504 2585 
C 1613 2585 1926 2585 2138 2140 
C 2253 1889 2253 1624 2253 1302 
C 2253 954 2253 696 2118 438 
C 1978 173 1773 25 1478 25 
z
" transform="scale(0.015625)"/>
       </defs>
       <use xlink:href="#CMR17-36" transform="scale(0.996264)"/>
       <use xlink:href="#CMSY10-2" transform="translate(67.829684 0)scale(0.996264)"/>
       <use xlink:href="#CMR17-31" transform="translate(167.456359 0)scale(0.996264)"/>
       <use xlink:href="#CMR17-30" transform="translate(213.146836 0)scale(0.996264)"/>
       <use xlink:href="#CMR17-39" transform="translate(258.837313 36.153639)scale(0.697382)"/>
      </g>
     </g>
    </g>
    <g id="xtick_8">
     <g id="line2d_8">
      <g>
       <use xlink:href="#mb9f2fcd4e1" x="377.639573" y="307.584" style="stroke: #000000; stroke-width: 0.6"/>
      </g>
     </g>
    </g>
    <g id="text_6">
     <!-- Number of rows -->
     <g transform="translate(201.373723 334.442332)scale(0.1 -0.1)">
      <defs>
       <path id="CMR17-4e" d="M 1312 4275 
C 1267 4345 1261 4352 1139 4352 
L 326 4352 
L 326 4185 
L 448 4185 
C 704 4185 819 4153 838 4147 
L 838 624 
C 838 465 838 166 326 166 
L 326 0 
C 474 12 742 12 902 12 
C 1062 12 1331 12 1478 0 
L 1478 166 
C 966 166 966 465 966 624 
L 966 4057 
C 1011 4019 1011 4007 1056 3943 
L 3430 76 
C 3475 0 3494 0 3526 0 
C 3590 0 3590 19 3590 140 
L 3590 3726 
C 3590 3885 3590 4185 4102 4185 
L 4102 4352 
C 3955 4339 3686 4339 3526 4339 
C 3366 4339 3098 4339 2950 4352 
L 2950 4185 
C 3462 4185 3462 3885 3462 3726 
L 3462 777 
L 1312 4275 
z
" transform="scale(0.015625)"/>
       <path id="CMR17-75" d="M 1882 2745 
L 1882 2579 
C 2259 2579 2317 2540 2317 2229 
L 2317 1053 
C 2317 510 2029 38 1555 38 
C 1030 38 986 355 986 691 
L 986 2816 
L 211 2745 
L 211 2579 
C 467 2579 640 2579 646 2320 
L 646 1079 
C 646 646 646 368 813 187 
C 896 103 1056 -64 1517 -64 
C 2061 -64 2272 400 2323 536 
L 2330 536 
L 2330 -64 
L 3091 -13 
L 3091 154 
C 2714 154 2656 193 2656 503 
L 2656 2816 
L 1882 2745 
z
" transform="scale(0.015625)"/>
       <path id="CMR17-6d" d="M 4326 1954 
C 4326 2276 4269 2816 3507 2816 
C 3072 2816 2771 2520 2656 2173 
L 2650 2173 
C 2573 2700 2195 2816 1837 2816 
C 1331 2816 1069 2424 973 2166 
L 966 2166 
L 966 2816 
L 211 2745 
L 211 2578 
C 589 2578 646 2540 646 2231 
L 646 443 
C 646 198 621 166 211 166 
L 211 0 
C 365 12 646 12 813 12 
C 979 12 1267 12 1421 0 
L 1421 166 
C 1011 166 986 192 986 443 
L 986 1678 
C 986 2269 1344 2713 1792 2713 
C 2266 2713 2317 2289 2317 1980 
L 2317 443 
C 2317 198 2291 166 1882 166 
L 1882 0 
C 2035 12 2317 12 2483 12 
C 2650 12 2938 12 3091 0 
L 3091 166 
C 2682 166 2656 192 2656 443 
L 2656 1678 
C 2656 2269 3014 2713 3462 2713 
C 3936 2713 3987 2289 3987 1980 
L 3987 443 
C 3987 198 3962 166 3552 166 
L 3552 0 
C 3706 12 3987 12 4154 12 
C 4320 12 4608 12 4762 0 
L 4762 166 
C 4352 166 4326 192 4326 443 
L 4326 1954 
z
" transform="scale(0.015625)"/>
       <path id="CMR17-62" d="M 960 4416 
L 198 4345 
L 198 4179 
C 576 4179 634 4141 634 3843 
L 634 -13 
L 749 -13 
L 934 445 
C 1120 141 1395 -64 1766 -64 
C 2406 -64 3053 503 3053 1382 
C 3053 2209 2477 2816 1830 2816 
C 1434 2816 1152 2603 960 2351 
L 960 4416 
z
M 973 2022 
C 973 2138 973 2157 1062 2293 
C 1312 2681 1670 2713 1792 2713 
C 1984 2713 2643 2610 2643 1388 
C 2643 109 1888 38 1734 38 
C 1536 38 1248 115 1043 490 
C 973 613 973 626 973 742 
L 973 2022 
z
" transform="scale(0.015625)"/>
       <path id="CMR17-65" d="M 2438 1503 
C 2464 1529 2464 1542 2464 1606 
C 2464 2251 2118 2816 1389 2816 
C 710 2816 173 2175 173 1394 
C 173 554 781 -64 1459 -64 
C 2176 -64 2458 619 2458 755 
C 2458 800 2419 800 2406 800 
C 2362 800 2355 787 2330 709 
C 2189 270 1837 51 1504 51 
C 1229 51 954 206 781 490 
C 582 819 582 1200 582 1503 
L 2438 1503 
z
M 589 1600 
C 634 2511 1126 2713 1382 2713 
C 1818 2713 2112 2308 2118 1600 
L 589 1600 
z
" transform="scale(0.015625)"/>
       <path id="CMR17-72" d="M 960 1517 
C 960 2134 1222 2713 1702 2713 
C 1747 2713 1792 2707 1837 2687 
C 1837 2687 1696 2642 1696 2475 
C 1696 2321 1818 2257 1914 2257 
C 1990 2257 2131 2302 2131 2482 
C 2131 2687 1926 2816 1709 2816 
C 1222 2816 1011 2340 947 2115 
L 941 2115 
L 941 2816 
L 198 2745 
L 198 2578 
C 576 2578 634 2540 634 2231 
L 634 443 
C 634 198 608 166 198 166 
L 198 0 
C 352 12 646 12 813 12 
C 998 12 1325 12 1498 0 
L 1498 166 
C 1037 166 960 166 960 455 
L 960 1517 
z
" transform="scale(0.015625)"/>
       <path id="CMR17-6f" d="M 2758 1356 
C 2758 2176 2163 2816 1466 2816 
C 768 2816 173 2176 173 1356 
C 173 550 768 -64 1466 -64 
C 2163 -64 2758 550 2758 1356 
z
M 1466 51 
C 1165 51 909 230 762 480 
C 602 768 582 1126 582 1408 
C 582 1676 595 2009 762 2297 
C 890 2508 1139 2713 1466 2713 
C 1754 2713 1997 2553 2150 2329 
C 2349 2028 2349 1606 2349 1408 
C 2349 1158 2336 774 2163 467 
C 1984 172 1709 51 1466 51 
z
" transform="scale(0.015625)"/>
       <path id="CMR17-66" d="M 979 2585 
L 1709 2585 
L 1709 2752 
L 966 2752 
L 966 3539 
C 966 4076 1235 4377 1510 4377 
C 1594 4377 1690 4363 1754 4339 
C 1702 4326 1568 4281 1568 4121 
C 1568 3955 1696 3904 1786 3904 
C 1875 3904 2003 3955 2003 4121 
C 2003 4353 1773 4480 1517 4480 
C 1152 4480 653 4211 653 3526 
L 653 2752 
L 141 2752 
L 141 2585 
L 653 2585 
L 653 441 
C 653 198 627 166 218 166 
L 218 0 
C 371 12 666 12 832 12 
C 1018 12 1344 12 1517 0 
L 1517 166 
C 1056 166 979 166 979 454 
L 979 2585 
z
" transform="scale(0.015625)"/>
       <path id="CMR17-77" d="M 3725 2186 
C 3853 2566 4109 2579 4205 2585 
L 4205 2752 
C 4077 2745 3949 2739 3821 2739 
C 3699 2739 3424 2739 3315 2752 
L 3315 2585 
C 3514 2572 3622 2456 3622 2296 
C 3622 2251 3610 2193 3597 2148 
L 2995 398 
L 2342 2296 
C 2330 2341 2310 2392 2310 2418 
C 2310 2585 2528 2585 2630 2585 
L 2630 2752 
C 2483 2739 2214 2739 2061 2739 
C 1901 2739 1734 2739 1587 2752 
L 1587 2585 
C 1939 2585 1939 2572 2074 2167 
L 1485 443 
L 851 2302 
C 819 2386 819 2399 819 2418 
C 819 2585 1037 2585 1139 2585 
L 1139 2752 
C 986 2739 717 2739 557 2739 
C 416 2739 198 2739 64 2752 
L 64 2585 
C 346 2585 416 2566 486 2353 
L 1274 38 
C 1299 -45 1318 -64 1370 -64 
C 1414 -64 1440 -52 1472 44 
L 2131 1987 
L 2797 44 
C 2829 -52 2854 -64 2899 -64 
C 2950 -64 2970 -45 2995 38 
L 3725 2186 
z
" transform="scale(0.015625)"/>
       <path id="CMR17-73" d="M 1978 2688 
C 1978 2803 1971 2809 1933 2809 
C 1907 2809 1901 2803 1824 2707 
C 1805 2681 1747 2617 1728 2592 
C 1523 2809 1235 2816 1126 2816 
C 416 2816 160 2444 160 2073 
C 160 1497 813 1363 998 1324 
C 1402 1241 1542 1216 1677 1100 
C 1760 1024 1901 883 1901 652 
C 1901 384 1747 38 1158 38 
C 602 38 403 460 288 1024 
C 269 1113 269 1120 218 1120 
C 166 1120 160 1113 160 985 
L 160 64 
C 160 -52 166 -58 205 -58 
C 237 -58 243 -52 275 0 
C 314 57 410 211 448 275 
C 576 102 800 -64 1158 -64 
C 1792 -64 2131 281 2131 780 
C 2131 1107 1958 1280 1875 1356 
C 1683 1555 1459 1600 1190 1651 
C 838 1728 390 1817 390 2208 
C 390 2374 480 2726 1126 2726 
C 1811 2726 1850 2086 1862 1881 
C 1869 1849 1901 1843 1920 1843 
C 1978 1843 1978 1862 1978 1971 
L 1978 2688 
z
" transform="scale(0.015625)"/>
      </defs>
      <use xlink:href="#CMR17-4e" transform="scale(0.996264)"/>
      <use xlink:href="#CMR17-75" transform="translate(69.07243 0)scale(0.996264)"/>
      <use xlink:href="#CMR17-6d" transform="translate(119.9678 0)scale(0.996264)"/>
      <use xlink:href="#CMR17-62" transform="translate(194.284936 0)scale(0.996264)"/>
      <use xlink:href="#CMR17-65" transform="translate(247.782744 0)scale(0.996264)"/>
      <use xlink:href="#CMR17-72" transform="translate(288.268404 0)scale(0.996264)"/>
      <use xlink:href="#CMR17-6f" transform="translate(353.625139 0)scale(0.996264)"/>
      <use xlink:href="#CMR17-66" transform="translate(399.315616 0)scale(0.996264)"/>
      <use xlink:href="#CMR17-72" transform="translate(456.865095 0)scale(0.996264)"/>
      <use xlink:href="#CMR17-6f" transform="translate(492.145862 0)scale(0.996264)"/>
      <use xlink:href="#CMR17-77" transform="translate(535.233886 0)scale(0.996264)"/>
      <use xlink:href="#CMR17-73" transform="translate(601.743766 0)scale(0.996264)"/>
     </g>
    </g>
   </g>
   <g id="matplotlib.axis_2">
    <g id="ytick_1">
     <g id="line2d_9">
      <defs>
       <path id="m9ddd5a8769" d="M 0 0 
L -3.5 0 
" style="stroke: #000000; stroke-width: 0.8"/>
      </defs>
      <g>
       <use xlink:href="#m9ddd5a8769" x="57.6" y="250.577867" style="stroke: #000000; stroke-width: 0.8"/>
      </g>
     </g>
     <g id="text_7">
      <!-- $\mathdefault{10^{1}}$ -->
      <g transform="translate(36.666092 254.037116)scale(0.1 -0.1)">
       <use xlink:href="#CMR17-31" transform="scale(0.996264)"/>
       <use xlink:href="#CMR17-30" transform="translate(45.690477 0)scale(0.996264)"/>
       <use xlink:href="#CMR17-31" transform="translate(91.380954 36.153639)scale(0.697382)"/>
      </g>
     </g>
    </g>
    <g id="ytick_2">
     <g id="line2d_10">
      <g>
       <use xlink:href="#m9ddd5a8769" x="57.6" y="145.169447" style="stroke: #000000; stroke-width: 0.8"/>
      </g>
     </g>
     <g id="text_8">
      <!-- $\mathdefault{10^{2}}$ -->
      <g transform="translate(36.666092 148.628696)scale(0.1 -0.1)">
       <use xlink:href="#CMR17-31" transform="scale(0.996264)"/>
       <use xlink:href="#CMR17-30" transform="translate(45.690477 0)scale(0.996264)"/>
       <use xlink:href="#CMR17-32" transform="translate(91.380954 36.153639)scale(0.697382)"/>
      </g>
     </g>
    </g>
    <g id="ytick_3">
     <g id="line2d_11">
      <defs>
       <path id="ma5223d0749" d="M 0 0 
L -2 0 
" style="stroke: #000000; stroke-width: 0.6"/>
      </defs>
      <g>
       <use xlink:href="#ma5223d0749" x="57.6" y="305.693689" style="stroke: #000000; stroke-width: 0.6"/>
      </g>
     </g>
    </g>
    <g id="ytick_4">
     <g id="line2d_12">
      <g>
       <use xlink:href="#ma5223d0749" x="57.6" y="292.524094" style="stroke: #000000; stroke-width: 0.6"/>
      </g>
     </g>
    </g>
    <g id="ytick_5">
     <g id="line2d_13">
      <g>
       <use xlink:href="#ma5223d0749" x="57.6" y="282.308963" style="stroke: #000000; stroke-width: 0.6"/>
      </g>
     </g>
    </g>
    <g id="ytick_6">
     <g id="line2d_14">
      <g>
       <use xlink:href="#ma5223d0749" x="57.6" y="273.962593" style="stroke: #000000; stroke-width: 0.6"/>
      </g>
     </g>
    </g>
    <g id="ytick_7">
     <g id="line2d_15">
      <g>
       <use xlink:href="#ma5223d0749" x="57.6" y="266.905837" style="stroke: #000000; stroke-width: 0.6"/>
      </g>
     </g>
    </g>
    <g id="ytick_8">
     <g id="line2d_16">
      <g>
       <use xlink:href="#ma5223d0749" x="57.6" y="260.792998" style="stroke: #000000; stroke-width: 0.6"/>
      </g>
     </g>
    </g>
    <g id="ytick_9">
     <g id="line2d_17">
      <g>
       <use xlink:href="#ma5223d0749" x="57.6" y="255.401091" style="stroke: #000000; stroke-width: 0.6"/>
      </g>
     </g>
    </g>
    <g id="ytick_10">
     <g id="line2d_18">
      <g>
       <use xlink:href="#ma5223d0749" x="57.6" y="218.846771" style="stroke: #000000; stroke-width: 0.6"/>
      </g>
     </g>
    </g>
    <g id="ytick_11">
     <g id="line2d_19">
      <g>
       <use xlink:href="#ma5223d0749" x="57.6" y="200.285269" style="stroke: #000000; stroke-width: 0.6"/>
      </g>
     </g>
    </g>
    <g id="ytick_12">
     <g id="line2d_20">
      <g>
       <use xlink:href="#ma5223d0749" x="57.6" y="187.115674" style="stroke: #000000; stroke-width: 0.6"/>
      </g>
     </g>
    </g>
    <g id="ytick_13">
     <g id="line2d_21">
      <g>
       <use xlink:href="#ma5223d0749" x="57.6" y="176.900543" style="stroke: #000000; stroke-width: 0.6"/>
      </g>
     </g>
    </g>
    <g id="ytick_14">
     <g id="line2d_22">
      <g>
       <use xlink:href="#ma5223d0749" x="57.6" y="168.554173" style="stroke: #000000; stroke-width: 0.6"/>
      </g>
     </g>
    </g>
    <g id="ytick_15">
     <g id="line2d_23">
      <g>
       <use xlink:href="#ma5223d0749" x="57.6" y="161.497418" style="stroke: #000000; stroke-width: 0.6"/>
      </g>
     </g>
    </g>
    <g id="ytick_16">
     <g id="line2d_24">
      <g>
       <use xlink:href="#ma5223d0749" x="57.6" y="155.384578" style="stroke: #000000; stroke-width: 0.6"/>
      </g>
     </g>
    </g>
    <g id="ytick_17">
     <g id="line2d_25">
      <g>
       <use xlink:href="#ma5223d0749" x="57.6" y="149.992672" style="stroke: #000000; stroke-width: 0.6"/>
      </g>
     </g>
    </g>
    <g id="ytick_18">
     <g id="line2d_26">
      <g>
       <use xlink:href="#ma5223d0749" x="57.6" y="113.438351" style="stroke: #000000; stroke-width: 0.6"/>
      </g>
     </g>
    </g>
    <g id="ytick_19">
     <g id="line2d_27">
      <g>
       <use xlink:href="#ma5223d0749" x="57.6" y="94.87685" style="stroke: #000000; stroke-width: 0.6"/>
      </g>
     </g>
    </g>
    <g id="ytick_20">
     <g id="line2d_28">
      <g>
       <use xlink:href="#ma5223d0749" x="57.6" y="81.707255" style="stroke: #000000; stroke-width: 0.6"/>
      </g>
     </g>
    </g>
    <g id="ytick_21">
     <g id="line2d_29">
      <g>
       <use xlink:href="#ma5223d0749" x="57.6" y="71.492123" style="stroke: #000000; stroke-width: 0.6"/>
      </g>
     </g>
    </g>
    <g id="ytick_22">
     <g id="line2d_30">
      <g>
       <use xlink:href="#ma5223d0749" x="57.6" y="63.145753" style="stroke: #000000; stroke-width: 0.6"/>
      </g>
     </g>
    </g>
    <g id="ytick_23">
     <g id="line2d_31">
      <g>
       <use xlink:href="#ma5223d0749" x="57.6" y="56.088998" style="stroke: #000000; stroke-width: 0.6"/>
      </g>
     </g>
    </g>
    <g id="ytick_24">
     <g id="line2d_32">
      <g>
       <use xlink:href="#ma5223d0749" x="57.6" y="49.976159" style="stroke: #000000; stroke-width: 0.6"/>
      </g>
     </g>
    </g>
    <g id="ytick_25">
     <g id="line2d_33">
      <g>
       <use xlink:href="#ma5223d0749" x="57.6" y="44.584252" style="stroke: #000000; stroke-width: 0.6"/>
      </g>
     </g>
    </g>
    <g id="text_9">
     <!-- Time (s) -->
     <g transform="translate(30.175432 193.374022)rotate(-90)scale(0.1 -0.1)">
      <defs>
       <path id="CMR17-54" d="M 3981 4332 
L 288 4332 
L 179 2924 
L 294 2924 
C 378 3981 467 4166 1453 4166 
C 1568 4166 1754 4166 1805 4159 
C 1926 4140 1926 4064 1926 3917 
L 1926 465 
C 1926 236 1907 166 1376 166 
L 1197 166 
L 1197 0 
C 1504 6 1824 12 2138 12 
C 2451 12 2771 6 3078 0 
L 3078 166 
L 2899 166 
C 2368 166 2349 236 2349 465 
L 2349 3917 
C 2349 4057 2349 4134 2464 4159 
C 2515 4166 2701 4166 2816 4166 
C 3795 4166 3891 3981 3974 2924 
L 4090 2924 
L 3981 4332 
z
" transform="scale(0.015625)"/>
       <path id="CMR17-69" d="M 992 3961 
C 992 4102 877 4224 730 4224 
C 589 4224 467 4108 467 3961 
C 467 3820 582 3699 730 3699 
C 870 3699 992 3814 992 3961 
z
M 243 2745 
L 243 2579 
C 602 2579 653 2540 653 2231 
L 653 443 
C 653 198 627 166 218 166 
L 218 0 
C 371 12 646 12 806 12 
C 960 12 1222 12 1370 0 
L 1370 166 
C 992 166 979 205 979 436 
L 979 2816 
L 243 2745 
z
" transform="scale(0.015625)"/>
       <path id="CMR17-28" d="M 1958 -1562 
C 1958 -1556 1958 -1543 1939 -1524 
C 1645 -1223 858 -403 858 1596 
C 858 3595 1632 4408 1946 4729 
C 1946 4735 1958 4748 1958 4767 
C 1958 4787 1939 4800 1914 4800 
C 1843 4800 1299 4325 986 3620 
C 666 2909 576 2218 576 1603 
C 576 1141 621 360 1005 -467 
C 1312 -1133 1837 -1600 1914 -1600 
C 1946 -1600 1958 -1588 1958 -1562 
z
" transform="scale(0.015625)"/>
       <path id="CMR17-29" d="M 1683 1596 
C 1683 2057 1638 2839 1254 3665 
C 947 4332 422 4800 346 4800 
C 326 4800 301 4793 301 4761 
C 301 4748 307 4742 314 4729 
C 621 4408 1402 3595 1402 1603 
C 1402 -396 627 -1210 314 -1530 
C 307 -1543 301 -1549 301 -1562 
C 301 -1594 326 -1600 346 -1600 
C 416 -1600 960 -1127 1274 -422 
C 1594 289 1683 981 1683 1596 
z
" transform="scale(0.015625)"/>
      </defs>
      <use xlink:href="#CMR17-54" transform="scale(0.996264)"/>
      <use xlink:href="#CMR17-69" transform="translate(66.509881 0)scale(0.996264)"/>
      <use xlink:href="#CMR17-6d" transform="translate(91.380939 0)scale(0.996264)"/>
      <use xlink:href="#CMR17-65" transform="translate(168.300529 0)scale(0.996264)"/>
      <use xlink:href="#CMR17-28" transform="translate(238.862156 0)scale(0.996264)"/>
      <use xlink:href="#CMR17-73" transform="translate(274.142924 0)scale(0.996264)"/>
      <use xlink:href="#CMR17-29" transform="translate(309.944261 0)scale(0.996264)"/>
     </g>
    </g>
   </g>
   <g id="line2d_34">
    <path d="M 73.832727 269.369378 
L 182.050909 236.57789 
L 290.269091 203.461053 
L 398.487273 155.807659 
" clip-path="url(#p664f3d4e6c)" style="fill: none; stroke: #6495ed; stroke-width: 1.5; stroke-linecap: square"/>
    <defs>
     <path id="m51128cf9bc" d="M -3 3 
L 3 -3 
M -3 -3 
L 3 3 
" style="stroke: #6495ed"/>
    </defs>
    <g clip-path="url(#p664f3d4e6c)">
     <use xlink:href="#m51128cf9bc" x="73.832727" y="269.369378" style="fill: #6495ed; stroke: #6495ed"/>
     <use xlink:href="#m51128cf9bc" x="182.050909" y="236.57789" style="fill: #6495ed; stroke: #6495ed"/>
     <use xlink:href="#m51128cf9bc" x="290.269091" y="203.461053" style="fill: #6495ed; stroke: #6495ed"/>
     <use xlink:href="#m51128cf9bc" x="398.487273" y="155.807659" style="fill: #6495ed; stroke: #6495ed"/>
    </g>
   </g>
   <g id="line2d_35">
    <path d="M 73.832727 295.488 
L 182.050909 265.117758 
L 290.269091 234.577299 
L 398.487273 201.492996 
" clip-path="url(#p664f3d4e6c)" style="fill: none; stroke: #4169e1; stroke-width: 1.5; stroke-linecap: square"/>
    <defs>
     <path id="ma6c43e6f09" d="M 0 1.5 
C 0.397805 1.5 0.77937 1.341951 1.06066 1.06066 
C 1.341951 0.77937 1.5 0.397805 1.5 0 
C 1.5 -0.397805 1.341951 -0.77937 1.06066 -1.06066 
C 0.77937 -1.341951 0.397805 -1.5 0 -1.5 
C -0.397805 -1.5 -0.77937 -1.341951 -1.06066 -1.06066 
C -1.341951 -0.77937 -1.5 -0.397805 -1.5 0 
C -1.5 0.397805 -1.341951 0.77937 -1.06066 1.06066 
C -0.77937 1.341951 -0.397805 1.5 0 1.5 
z
" style="stroke: #4169e1"/>
    </defs>
    <g clip-path="url(#p664f3d4e6c)">
     <use xlink:href="#ma6c43e6f09" x="73.832727" y="295.488" style="fill: #4169e1; stroke: #4169e1"/>
     <use xlink:href="#ma6c43e6f09" x="182.050909" y="265.117758" style="fill: #4169e1; stroke: #4169e1"/>
     <use xlink:href="#ma6c43e6f09" x="290.269091" y="234.577299" style="fill: #4169e1; stroke: #4169e1"/>
     <use xlink:href="#ma6c43e6f09" x="398.487273" y="201.492996" style="fill: #4169e1; stroke: #4169e1"/>
    </g>
   </g>
   <g id="line2d_36">
    <path d="M 73.832727 173.239987 
L 182.050909 155.211521 
L 290.269091 123.977074 
L 398.487273 91.48912 
" clip-path="url(#p664f3d4e6c)" style="fill: none; stroke: #008000; stroke-width: 1.5; stroke-linecap: square"/>
    <defs>
     <path id="m1824287156" d="M -3 3 
L 3 -3 
M -3 -3 
L 3 3 
" style="stroke: #008000"/>
    </defs>
    <g clip-path="url(#p664f3d4e6c)">
     <use xlink:href="#m1824287156" x="73.832727" y="173.239987" style="fill: #008000; stroke: #008000"/>
     <use xlink:href="#m1824287156" x="182.050909" y="155.211521" style="fill: #008000; stroke: #008000"/>
     <use xlink:href="#m1824287156" x="290.269091" y="123.977074" style="fill: #008000; stroke: #008000"/>
     <use xlink:href="#m1824287156" x="398.487273" y="91.48912" style="fill: #008000; stroke: #008000"/>
    </g>
   </g>
   <g id="line2d_37">
    <path d="M 73.832727 184.783065 
L 182.050909 168.504353 
L 290.269091 127.433246 
L 398.487273 53.568 
" clip-path="url(#p664f3d4e6c)" style="fill: none; stroke: #006400; stroke-width: 1.5; stroke-linecap: square"/>
    <defs>
     <path id="m06fa0d2550" d="M -3 3 
L 3 -3 
M -3 -3 
L 3 3 
" style="stroke: #006400"/>
    </defs>
    <g clip-path="url(#p664f3d4e6c)">
     <use xlink:href="#m06fa0d2550" x="73.832727" y="184.783065" style="fill: #006400; stroke: #006400"/>
     <use xlink:href="#m06fa0d2550" x="182.050909" y="168.504353" style="fill: #006400; stroke: #006400"/>
     <use xlink:href="#m06fa0d2550" x="290.269091" y="127.433246" style="fill: #006400; stroke: #006400"/>
     <use xlink:href="#m06fa0d2550" x="398.487273" y="53.568" style="fill: #006400; stroke: #006400"/>
    </g>
   </g>
   <g id="line2d_38">
    <path d="M 73.832727 166.257469 
L 182.050909 156.235522 
L 290.269091 131.703256 
L 398.487273 102.794914 
" clip-path="url(#p664f3d4e6c)" style="fill: none; stroke: #d2b48c; stroke-width: 1.5; stroke-linecap: square"/>
    <defs>
     <path id="m4588d7d434" d="M 0 1.5 
C 0.397805 1.5 0.77937 1.341951 1.06066 1.06066 
C 1.341951 0.77937 1.5 0.397805 1.5 0 
C 1.5 -0.397805 1.341951 -0.77937 1.06066 -1.06066 
C 0.77937 -1.341951 0.397805 -1.5 0 -1.5 
C -0.397805 -1.5 -0.77937 -1.341951 -1.06066 -1.06066 
C -1.341951 -0.77937 -1.5 -0.397805 -1.5 0 
C -1.5 0.397805 -1.341951 0.77937 -1.06066 1.06066 
C -0.77937 1.341951 -0.397805 1.5 0 1.5 
z
" style="stroke: #d2b48c"/>
    </defs>
    <g clip-path="url(#p664f3d4e6c)">
     <use xlink:href="#m4588d7d434" x="73.832727" y="166.257469" style="fill: #d2b48c; stroke: #d2b48c"/>
     <use xlink:href="#m4588d7d434" x="182.050909" y="156.235522" style="fill: #d2b48c; stroke: #d2b48c"/>
     <use xlink:href="#m4588d7d434" x="290.269091" y="131.703256" style="fill: #d2b48c; stroke: #d2b48c"/>
     <use xlink:href="#m4588d7d434" x="398.487273" y="102.794914" style="fill: #d2b48c; stroke: #d2b48c"/>
    </g>
   </g>
   <g id="line2d_39">
    <path d="M 73.832727 192.882563 
L 182.050909 171.170519 
L 290.269091 139.028062 
L 398.487273 61.279116 
" clip-path="url(#p664f3d4e6c)" style="fill: none; stroke: #800000; stroke-width: 1.5; stroke-linecap: square"/>
    <defs>
     <path id="m454ff5397b" d="M 0 1.5 
C 0.397805 1.5 0.77937 1.341951 1.06066 1.06066 
C 1.341951 0.77937 1.5 0.397805 1.5 0 
C 1.5 -0.397805 1.341951 -0.77937 1.06066 -1.06066 
C 0.77937 -1.341951 0.397805 -1.5 0 -1.5 
C -0.397805 -1.5 -0.77937 -1.341951 -1.06066 -1.06066 
C -1.341951 -0.77937 -1.5 -0.397805 -1.5 0 
C -1.5 0.397805 -1.341951 0.77937 -1.06066 1.06066 
C -0.77937 1.341951 -0.397805 1.5 0 1.5 
z
" style="stroke: #800000"/>
    </defs>
    <g clip-path="url(#p664f3d4e6c)">
     <use xlink:href="#m454ff5397b" x="73.832727" y="192.882563" style="fill: #800000; stroke: #800000"/>
     <use xlink:href="#m454ff5397b" x="182.050909" y="171.170519" style="fill: #800000; stroke: #800000"/>
     <use xlink:href="#m454ff5397b" x="290.269091" y="139.028062" style="fill: #800000; stroke: #800000"/>
     <use xlink:href="#m454ff5397b" x="398.487273" y="61.279116" style="fill: #800000; stroke: #800000"/>
    </g>
   </g>
   <g id="line2d_40">
    <path d="M 73.832727 188.565925 
L 182.050909 174.71005 
L 290.269091 138.09726 
" clip-path="url(#p664f3d4e6c)" style="fill: none; stroke: #ff8c00; stroke-width: 1.5; stroke-linecap: square"/>
    <defs>
     <path id="mddc59964ab" d="M 0 1.5 
C 0.397805 1.5 0.77937 1.341951 1.06066 1.06066 
C 1.341951 0.77937 1.5 0.397805 1.5 0 
C 1.5 -0.397805 1.341951 -0.77937 1.06066 -1.06066 
C 0.77937 -1.341951 0.397805 -1.5 0 -1.5 
C -0.397805 -1.5 -0.77937 -1.341951 -1.06066 -1.06066 
C -1.341951 -0.77937 -1.5 -0.397805 -1.5 0 
C -1.5 0.397805 -1.341951 0.77937 -1.06066 1.06066 
C -0.77937 1.341951 -0.397805 1.5 0 1.5 
z
" style="stroke: #ff8c00"/>
    </defs>
    <g clip-path="url(#p664f3d4e6c)">
     <use xlink:href="#mddc59964ab" x="73.832727" y="188.565925" style="fill: #ff8c00; stroke: #ff8c00"/>
     <use xlink:href="#mddc59964ab" x="182.050909" y="174.71005" style="fill: #ff8c00; stroke: #ff8c00"/>
     <use xlink:href="#mddc59964ab" x="290.269091" y="138.09726" style="fill: #ff8c00; stroke: #ff8c00"/>
    </g>
   </g>
   <g id="patch_3">
    <path d="M 57.6 307.584 
L 57.6 41.472 
" style="fill: none; stroke: #000000; stroke-width: 0.8; stroke-linejoin: miter; stroke-linecap: square"/>
   </g>
   <g id="patch_4">
    <path d="M 414.72 307.584 
L 414.72 41.472 
" style="fill: none; stroke: #000000; stroke-width: 0.8; stroke-linejoin: miter; stroke-linecap: square"/>
   </g>
   <g id="patch_5">
    <path d="M 57.6 307.584 
L 414.72 307.584 
" style="fill: none; stroke: #000000; stroke-width: 0.8; stroke-linejoin: miter; stroke-linecap: square"/>
   </g>
   <g id="patch_6">
    <path d="M 57.6 41.472 
L 414.72 41.472 
" style="fill: none; stroke: #000000; stroke-width: 0.8; stroke-linejoin: miter; stroke-linecap: square"/>
   </g>
   <g id="text_10">
    <!-- Cylon vs Twister2 - Join (150 Workers) -->
    <g transform="translate(134.532436 35.472)scale(0.12 -0.12)">
     <defs>
      <path id="CMR17-43" d="M 3974 4351 
C 3974 4467 3968 4473 3930 4473 
C 3904 4473 3898 4467 3853 4390 
L 3571 3849 
C 3258 4249 2874 4480 2381 4480 
C 1286 4480 294 3507 294 2179 
C 294 837 1286 -128 2387 -128 
C 3366 -128 3974 741 3974 1482 
C 3974 1547 3974 1573 3917 1573 
C 3866 1573 3866 1553 3859 1495 
C 3808 592 3168 38 2477 38 
C 1824 38 781 502 781 2179 
C 781 3862 1843 4313 2464 4313 
C 3187 4313 3712 3681 3834 2785 
C 3846 2707 3846 2695 3904 2695 
C 3974 2695 3974 2707 3974 2824 
L 3974 4351 
z
" transform="scale(0.015625)"/>
      <path id="CMR17-79" d="M 2496 2183 
C 2656 2579 2944 2585 3034 2585 
L 3034 2752 
C 2912 2745 2752 2739 2630 2739 
C 2496 2739 2285 2739 2157 2752 
L 2157 2585 
C 2400 2566 2406 2384 2406 2332 
C 2406 2268 2394 2235 2362 2158 
L 1664 409 
L 902 2300 
C 870 2378 870 2423 870 2430 
C 870 2572 1018 2585 1171 2585 
L 1171 2752 
C 1018 2739 742 2739 582 2739 
C 410 2739 205 2739 64 2752 
L 64 2585 
C 410 2585 448 2553 531 2345 
L 1485 -31 
C 1197 -795 1030 -1242 627 -1242 
C 557 -1242 397 -1223 282 -1106 
C 429 -1093 493 -1002 493 -892 
C 493 -782 416 -685 288 -685 
C 147 -685 77 -782 77 -899 
C 77 -1158 339 -1344 627 -1344 
C 998 -1344 1229 -983 1357 -659 
L 2496 2183 
z
" transform="scale(0.015625)"/>
      <path id="CMR17-6c" d="M 979 4416 
L 218 4345 
L 218 4179 
C 595 4179 653 4141 653 3835 
L 653 439 
C 653 198 627 166 218 166 
L 218 0 
C 371 12 653 12 813 12 
C 979 12 1261 12 1414 0 
L 1414 166 
C 1005 166 979 191 979 439 
L 979 4416 
z
" transform="scale(0.015625)"/>
      <path id="CMR17-6e" d="M 2656 1954 
C 2656 2282 2592 2816 1837 2816 
C 1331 2816 1069 2424 973 2166 
L 966 2166 
L 966 2816 
L 211 2745 
L 211 2578 
C 589 2578 646 2540 646 2231 
L 646 443 
C 646 198 621 166 211 166 
L 211 0 
C 365 12 646 12 813 12 
C 979 12 1267 12 1421 0 
L 1421 166 
C 1011 166 986 192 986 443 
L 986 1678 
C 986 2269 1344 2713 1792 2713 
C 2266 2713 2317 2289 2317 1980 
L 2317 443 
C 2317 198 2291 166 1882 166 
L 1882 0 
C 2035 12 2317 12 2483 12 
C 2650 12 2938 12 3091 0 
L 3091 166 
C 2682 166 2656 192 2656 443 
L 2656 1954 
z
" transform="scale(0.015625)"/>
      <path id="CMR17-76" d="M 2502 2173 
C 2560 2315 2662 2572 3034 2585 
L 3034 2752 
C 2912 2745 2752 2739 2630 2739 
C 2496 2739 2285 2739 2157 2752 
L 2157 2585 
C 2317 2572 2406 2495 2406 2328 
C 2406 2270 2406 2257 2368 2167 
L 1664 379 
L 902 2308 
C 864 2392 864 2405 864 2431 
C 864 2585 1075 2585 1171 2585 
L 1171 2752 
C 1018 2739 736 2739 576 2739 
C 403 2739 205 2739 64 2752 
L 64 2585 
C 307 2585 442 2585 518 2386 
L 1446 44 
C 1485 -52 1491 -64 1549 -64 
C 1606 -64 1613 -52 1651 44 
L 2502 2173 
z
" transform="scale(0.015625)"/>
      <path id="CMR17-74" d="M 966 2585 
L 1862 2585 
L 1862 2752 
L 966 2752 
L 966 3968 
L 851 3968 
C 838 3292 614 2700 70 2687 
L 70 2585 
L 627 2585 
L 627 778 
C 627 655 627 -64 1370 -64 
C 1747 -64 1965 308 1965 784 
L 1965 1151 
L 1850 1151 
L 1850 790 
C 1850 347 1677 51 1408 51 
C 1222 51 966 179 966 765 
L 966 2585 
z
" transform="scale(0.015625)"/>
      <path id="CMR17-2d" d="M 1632 1254 
L 1632 1536 
L 26 1536 
L 26 1254 
L 1632 1254 
z
" transform="scale(0.015625)"/>
      <path id="CMR17-4a" d="M 1888 902 
C 1888 316 1568 -26 1242 -26 
C 1075 -26 691 49 525 428 
C 550 422 582 415 608 415 
C 730 415 883 499 883 691 
C 883 844 774 960 614 960 
C 461 960 339 863 339 678 
C 339 254 730 -128 1254 -128 
C 1754 -128 2214 223 2291 755 
C 2298 799 2298 812 2298 1030 
L 2298 3734 
C 2298 3844 2298 4024 2310 4063 
C 2336 4185 2483 4185 2682 4185 
L 2682 4352 
C 2669 4352 2214 4339 2054 4339 
C 1786 4339 1491 4339 1222 4352 
L 1222 4185 
L 1376 4185 
C 1875 4185 1888 4114 1888 3883 
L 1888 902 
z
" transform="scale(0.015625)"/>
      <path id="CMR17-35" d="M 730 3750 
C 794 3724 1056 3641 1325 3641 
C 1920 3641 2246 3961 2432 4140 
C 2432 4191 2432 4224 2394 4224 
C 2387 4224 2374 4224 2323 4198 
C 2099 4102 1837 4032 1517 4032 
C 1325 4032 1037 4055 723 4191 
C 653 4224 640 4224 634 4224 
C 602 4224 595 4217 595 4090 
L 595 2231 
C 595 2113 595 2080 659 2080 
C 691 2080 704 2093 736 2139 
C 941 2435 1222 2560 1542 2560 
C 1766 2560 2246 2415 2246 1293 
C 2246 1087 2246 716 2054 422 
C 1894 159 1645 25 1370 25 
C 947 25 518 319 403 812 
C 429 806 480 793 506 793 
C 589 793 749 838 749 1036 
C 749 1209 627 1280 506 1280 
C 358 1280 262 1190 262 1011 
C 262 454 704 -128 1382 -128 
C 2042 -128 2669 441 2669 1267 
C 2669 2054 2170 2662 1549 2662 
C 1222 2662 947 2540 730 2304 
L 730 3750 
z
" transform="scale(0.015625)"/>
      <path id="CMR17-57" d="M 5523 3775 
C 5581 3948 5677 4173 6048 4185 
L 6048 4352 
C 5939 4345 5715 4339 5600 4339 
C 5440 4339 5158 4339 5005 4352 
L 5005 4185 
C 5293 4179 5414 4019 5414 3865 
C 5414 3820 5408 3794 5382 3724 
L 4390 557 
L 3347 3890 
C 3328 3955 3322 3980 3322 4006 
C 3322 4185 3603 4185 3725 4185 
L 3725 4352 
C 3539 4339 3219 4339 3021 4339 
C 2861 4339 2573 4339 2426 4352 
L 2426 4185 
C 2720 4185 2797 4166 2861 4051 
C 2886 3993 2989 3660 2989 3640 
C 2989 3615 2976 3576 2970 3557 
L 2029 564 
L 986 3890 
C 954 3980 954 3993 954 4006 
C 954 4185 1235 4185 1363 4185 
L 1363 4352 
C 1178 4339 858 4339 659 4339 
C 493 4339 211 4339 58 4352 
L 58 4185 
C 442 4185 467 4147 531 3942 
L 1779 -20 
C 1811 -116 1811 -128 1869 -128 
C 1920 -128 1939 -116 1965 -26 
L 3053 3448 
L 4141 -26 
C 4166 -116 4186 -128 4237 -128 
C 4294 -128 4294 -116 4326 -20 
L 5523 3775 
z
" transform="scale(0.015625)"/>
      <path id="CMR17-6b" d="M 1670 1679 
C 1664 1692 1632 1730 1632 1749 
C 1632 1762 2086 2175 2144 2226 
C 2509 2532 2739 2563 2906 2570 
L 2906 2735 
C 2867 2735 2854 2735 2848 2729 
L 2534 2722 
C 2355 2722 2080 2722 1907 2735 
L 1907 2570 
C 1997 2563 2061 2513 2061 2423 
C 2061 2296 1933 2175 1926 2175 
L 960 1298 
L 960 4416 
L 198 4345 
L 198 4179 
C 576 4179 634 4141 634 3835 
L 634 439 
C 634 198 608 166 198 166 
L 198 0 
C 352 12 634 12 794 12 
C 954 12 1235 12 1389 0 
L 1389 166 
C 979 166 954 191 954 439 
L 954 1139 
L 1395 1540 
L 2042 586 
C 2118 471 2182 382 2182 299 
C 2182 185 2067 166 1990 166 
L 1990 0 
C 2144 12 2419 12 2579 12 
C 2694 12 2931 6 3040 0 
L 3040 166 
C 2739 166 2669 223 2477 503 
L 1670 1679 
z
" transform="scale(0.015625)"/>
     </defs>
     <use xlink:href="#CMR17-43" transform="scale(0.996264)"/>
     <use xlink:href="#CMR17-79" transform="translate(66.509881 0)scale(0.996264)"/>
     <use xlink:href="#CMR17-6c" transform="translate(114.802796 0)scale(0.996264)"/>
     <use xlink:href="#CMR17-6f" transform="translate(139.673855 0)scale(0.996264)"/>
     <use xlink:href="#CMR17-6e" transform="translate(185.364332 0)scale(0.996264)"/>
     <use xlink:href="#CMR17-76" transform="translate(266.335668 0)scale(0.996264)"/>
     <use xlink:href="#CMR17-73" transform="translate(314.628584 0)scale(0.996264)"/>
     <use xlink:href="#CMR17-54" transform="translate(380.505888 0)scale(0.996264)"/>
     <use xlink:href="#CMR17-77" transform="translate(447.015769 0)scale(0.996264)"/>
     <use xlink:href="#CMR17-69" transform="translate(513.525649 0)scale(0.996264)"/>
     <use xlink:href="#CMR17-73" transform="translate(538.396708 0)scale(0.996264)"/>
     <use xlink:href="#CMR17-74" transform="translate(574.198045 0)scale(0.996264)"/>
     <use xlink:href="#CMR17-65" transform="translate(609.478813 0)scale(0.996264)"/>
     <use xlink:href="#CMR17-72" transform="translate(649.964473 0)scale(0.996264)"/>
     <use xlink:href="#CMR17-32" transform="translate(685.245241 0)scale(0.996264)"/>
     <use xlink:href="#CMR17-2d" transform="translate(761.011685 0)scale(0.996264)"/>
     <use xlink:href="#CMR17-4a" transform="translate(821.163617 0)scale(0.996264)"/>
     <use xlink:href="#CMR17-6f" transform="translate(868.135407 0)scale(0.996264)"/>
     <use xlink:href="#CMR17-69" transform="translate(913.825884 0)scale(0.996264)"/>
     <use xlink:href="#CMR17-6e" transform="translate(938.696943 0)scale(0.996264)"/>
     <use xlink:href="#CMR17-28" transform="translate(1019.668279 0)scale(0.996264)"/>
     <use xlink:href="#CMR17-31" transform="translate(1054.949047 0)scale(0.996264)"/>
     <use xlink:href="#CMR17-35" transform="translate(1100.639524 0)scale(0.996264)"/>
     <use xlink:href="#CMR17-30" transform="translate(1146.330001 0)scale(0.996264)"/>
     <use xlink:href="#CMR17-57" transform="translate(1222.096444 0)scale(0.996264)"/>
     <use xlink:href="#CMR17-6f" transform="translate(1309.385839 0)scale(0.996264)"/>
     <use xlink:href="#CMR17-72" transform="translate(1355.076316 0)scale(0.996264)"/>
     <use xlink:href="#CMR17-6b" transform="translate(1390.357084 0)scale(0.996264)"/>
     <use xlink:href="#CMR17-65" transform="translate(1436.047546 0)scale(0.996264)"/>
     <use xlink:href="#CMR17-72" transform="translate(1476.533206 0)scale(0.996264)"/>
     <use xlink:href="#CMR17-73" transform="translate(1511.813974 0)scale(0.996264)"/>
     <use xlink:href="#CMR17-29" transform="translate(1547.615312 0)scale(0.996264)"/>
    </g>
   </g>
   <g id="legend_1">
    <g id="patch_7">
     <path d="M 64.6 152.159557 
L 203.47718 152.159557 
Q 205.47718 152.159557 205.47718 150.159557 
L 205.47718 48.472 
Q 205.47718 46.472 203.47718 46.472 
L 64.6 46.472 
Q 62.6 46.472 62.6 48.472 
L 62.6 150.159557 
Q 62.6 152.159557 64.6 152.159557 
z
" style="fill: #ffffff; opacity: 0.8; stroke: #cccccc; stroke-linejoin: miter"/>
    </g>
    <g id="line2d_41">
     <path d="M 66.6 53.972 
L 76.6 53.972 
L 86.6 53.972 
" style="fill: none; stroke: #6495ed; stroke-width: 1.5; stroke-linecap: square"/>
     <g>
      <use xlink:href="#m51128cf9bc" x="76.6" y="53.972" style="fill: #6495ed; stroke: #6495ed"/>
     </g>
    </g>
    <g id="text_11">
     <!-- Cylon Hash -->
     <g transform="translate(94.6 57.472)scale(0.1 -0.1)">
      <defs>
       <path id="CMR17-48" d="M 3590 3898 
C 3590 4185 3661 4185 4102 4185 
L 4102 4352 
C 3917 4339 3578 4339 3379 4339 
C 3181 4339 2842 4339 2656 4352 
L 2656 4185 
C 3098 4185 3168 4185 3168 3898 
L 3168 2342 
L 1261 2342 
L 1261 3898 
C 1261 4185 1331 4185 1773 4185 
L 1773 4352 
C 1587 4339 1248 4339 1050 4339 
C 851 4339 512 4339 326 4352 
L 326 4185 
C 768 4185 838 4185 838 3898 
L 838 452 
C 838 166 768 166 326 166 
L 326 0 
C 512 12 851 12 1050 12 
C 1248 12 1587 12 1773 0 
L 1773 166 
C 1331 166 1261 166 1261 452 
L 1261 2176 
L 3168 2176 
L 3168 452 
C 3168 166 3098 166 2656 166 
L 2656 0 
C 2842 12 3181 12 3379 12 
C 3578 12 3917 12 4102 0 
L 4102 166 
C 3661 166 3590 166 3590 452 
L 3590 3898 
z
" transform="scale(0.015625)"/>
       <path id="CMR17-61" d="M 2304 1656 
C 2304 2048 2304 2275 2035 2534 
C 1798 2751 1523 2816 1306 2816 
C 800 2816 435 2408 435 1977 
C 435 1740 627 1728 666 1728 
C 749 1728 896 1779 896 1958 
C 896 2118 774 2188 666 2188 
C 640 2188 608 2182 589 2176 
C 723 2594 1069 2713 1293 2713 
C 1613 2713 1965 2421 1965 1875 
L 1965 1632 
C 1587 1619 1133 1568 774 1373 
C 371 1147 256 822 256 576 
C 256 77 832 -64 1171 -64 
C 1523 -64 1850 135 1990 505 
C 2003 219 2182 -39 2464 -39 
C 2598 -39 2938 51 2938 563 
L 2938 926 
L 2822 926 
L 2822 557 
C 2822 161 2650 109 2566 109 
C 2304 109 2304 446 2304 732 
L 2304 1656 
z
M 1965 887 
C 1965 323 1568 38 1216 38 
C 896 38 646 278 646 576 
C 646 771 730 1114 1101 1322 
C 1408 1497 1760 1523 1965 1536 
L 1965 887 
z
" transform="scale(0.015625)"/>
       <path id="CMR17-68" d="M 2656 1954 
C 2656 2282 2592 2816 1837 2816 
C 1312 2816 1056 2392 979 2179 
L 973 2179 
L 973 4416 
L 211 4345 
L 211 4179 
C 589 4179 646 4141 646 3843 
L 646 443 
C 646 198 621 166 211 166 
L 211 0 
C 365 12 646 12 813 12 
C 979 12 1267 12 1421 0 
L 1421 166 
C 1011 166 986 192 986 443 
L 986 1678 
C 986 2269 1344 2713 1792 2713 
C 2266 2713 2317 2289 2317 1980 
L 2317 443 
C 2317 198 2291 166 1882 166 
L 1882 0 
C 2035 12 2317 12 2483 12 
C 2650 12 2938 12 3091 0 
L 3091 166 
C 2682 166 2656 192 2656 443 
L 2656 1954 
z
" transform="scale(0.015625)"/>
      </defs>
      <use xlink:href="#CMR17-43" transform="scale(0.996264)"/>
      <use xlink:href="#CMR17-79" transform="translate(66.509881 0)scale(0.996264)"/>
      <use xlink:href="#CMR17-6c" transform="translate(114.802796 0)scale(0.996264)"/>
      <use xlink:href="#CMR17-6f" transform="translate(139.673855 0)scale(0.996264)"/>
      <use xlink:href="#CMR17-6e" transform="translate(185.364332 0)scale(0.996264)"/>
      <use xlink:href="#CMR17-48" transform="translate(266.335668 0)scale(0.996264)"/>
      <use xlink:href="#CMR17-61" transform="translate(335.408098 0)scale(0.996264)"/>
      <use xlink:href="#CMR17-73" transform="translate(381.098575 0)scale(0.996264)"/>
      <use xlink:href="#CMR17-68" transform="translate(416.899913 0)scale(0.996264)"/>
     </g>
    </g>
    <g id="line2d_42">
     <path d="M 66.6 67.909178 
L 76.6 67.909178 
L 86.6 67.909178 
" style="fill: none; stroke: #4169e1; stroke-width: 1.5; stroke-linecap: square"/>
     <g>
      <use xlink:href="#ma6c43e6f09" x="76.6" y="67.909178" style="fill: #4169e1; stroke: #4169e1"/>
     </g>
    </g>
    <g id="text_12">
     <!-- Cylon Sort -->
     <g transform="translate(94.6 71.409178)scale(0.1 -0.1)">
      <defs>
       <path id="CMR17-53" d="M 2803 4351 
C 2803 4467 2797 4473 2758 4473 
C 2720 4473 2707 4447 2682 4390 
L 2490 3965 
C 2246 4320 1875 4480 1472 4480 
C 819 4480 294 3958 294 3301 
C 294 3101 339 2817 557 2546 
C 794 2250 1018 2198 1530 2063 
C 1722 2011 2042 1927 2106 1901 
C 2470 1747 2662 1360 2662 999 
C 2662 534 2336 38 1779 38 
C 1094 38 454 425 410 1328 
C 403 1431 397 1437 352 1437 
C 301 1437 294 1431 294 1302 
L 294 0 
C 294 -116 301 -122 339 -122 
C 384 -122 397 -90 486 109 
C 493 128 493 141 614 386 
C 934 -39 1472 -128 1779 -128 
C 2477 -128 2970 457 2970 1141 
C 2970 1476 2848 1734 2778 1850 
C 2509 2263 2221 2340 1914 2417 
C 1869 2437 1856 2437 1498 2527 
C 1152 2617 1005 2662 845 2836 
C 666 3036 602 3243 602 3449 
C 602 3868 934 4326 1478 4326 
C 2157 4326 2579 3842 2675 3036 
C 2694 2920 2701 2914 2746 2914 
C 2803 2914 2803 2933 2803 3043 
L 2803 4351 
z
" transform="scale(0.015625)"/>
      </defs>
      <use xlink:href="#CMR17-43" transform="scale(0.996264)"/>
      <use xlink:href="#CMR17-79" transform="translate(66.509881 0)scale(0.996264)"/>
      <use xlink:href="#CMR17-6c" transform="translate(114.802796 0)scale(0.996264)"/>
      <use xlink:href="#CMR17-6f" transform="translate(139.673855 0)scale(0.996264)"/>
      <use xlink:href="#CMR17-6e" transform="translate(185.364332 0)scale(0.996264)"/>
      <use xlink:href="#CMR17-53" transform="translate(266.335668 0)scale(0.996264)"/>
      <use xlink:href="#CMR17-6f" transform="translate(317.231038 0)scale(0.996264)"/>
      <use xlink:href="#CMR17-72" transform="translate(362.921515 0)scale(0.996264)"/>
      <use xlink:href="#CMR17-74" transform="translate(398.202283 0)scale(0.996264)"/>
     </g>
    </g>
    <g id="line2d_43">
     <path d="M 66.6 82.318337 
L 76.6 82.318337 
L 86.6 82.318337 
" style="fill: none; stroke: #008000; stroke-width: 1.5; stroke-linecap: square"/>
     <g>
      <use xlink:href="#m1824287156" x="76.6" y="82.318337" style="fill: #008000; stroke: #008000"/>
     </g>
    </g>
    <g id="text_13">
     <!-- Tw2 Hash (Chain) Disk -->
     <g transform="translate(94.6 85.818337)scale(0.1 -0.1)">
      <defs>
       <path id="CMR17-44" d="M 333 4352 
L 333 4185 
C 774 4185 845 4185 845 3898 
L 845 453 
C 845 166 774 166 333 166 
L 333 0 
L 2368 0 
C 3398 0 4224 943 4224 2140 
C 4224 3344 3411 4352 2368 4352 
L 333 4352 
z
M 1523 166 
C 1267 166 1254 198 1254 414 
L 1254 3936 
C 1254 4153 1267 4185 1523 4185 
L 2240 4185 
C 2771 4185 3750 3873 3750 2140 
C 3750 1242 3488 879 3366 707 
C 3213 510 2848 166 2240 166 
L 1523 166 
z
" transform="scale(0.015625)"/>
      </defs>
      <use xlink:href="#CMR17-54" transform="scale(0.996264)"/>
      <use xlink:href="#CMR17-77" transform="translate(66.509881 0)scale(0.996264)"/>
      <use xlink:href="#CMR17-32" transform="translate(133.019761 0)scale(0.996264)"/>
      <use xlink:href="#CMR17-48" transform="translate(208.786205 0)scale(0.996264)"/>
      <use xlink:href="#CMR17-61" transform="translate(277.858634 0)scale(0.996264)"/>
      <use xlink:href="#CMR17-73" transform="translate(323.549111 0)scale(0.996264)"/>
      <use xlink:href="#CMR17-68" transform="translate(359.350449 0)scale(0.996264)"/>
      <use xlink:href="#CMR17-28" transform="translate(440.321785 0)scale(0.996264)"/>
      <use xlink:href="#CMR17-43" transform="translate(475.602553 0)scale(0.996264)"/>
      <use xlink:href="#CMR17-68" transform="translate(542.112434 0)scale(0.996264)"/>
      <use xlink:href="#CMR17-61" transform="translate(593.007803 0)scale(0.996264)"/>
      <use xlink:href="#CMR17-69" transform="translate(638.69828 0)scale(0.996264)"/>
      <use xlink:href="#CMR17-6e" transform="translate(663.569339 0)scale(0.996264)"/>
      <use xlink:href="#CMR17-29" transform="translate(714.464709 0)scale(0.996264)"/>
      <use xlink:href="#CMR17-44" transform="translate(779.821443 0)scale(0.996264)"/>
      <use xlink:href="#CMR17-69" transform="translate(850.214999 0)scale(0.996264)"/>
      <use xlink:href="#CMR17-73" transform="translate(875.086057 0)scale(0.996264)"/>
      <use xlink:href="#CMR17-6b" transform="translate(910.887395 0)scale(0.996264)"/>
     </g>
    </g>
    <g id="line2d_44">
     <path d="M 66.6 97.280977 
L 76.6 97.280977 
L 86.6 97.280977 
" style="fill: none; stroke: #006400; stroke-width: 1.5; stroke-linecap: square"/>
     <g>
      <use xlink:href="#m06fa0d2550" x="76.6" y="97.280977" style="fill: #006400; stroke: #006400"/>
     </g>
    </g>
    <g id="text_14">
     <!-- Tw2 Hash (Chain) Mem -->
     <g transform="translate(94.6 100.780977)scale(0.1 -0.1)">
      <defs>
       <path id="CMR17-4d" d="M 1338 4249 
C 1299 4345 1293 4352 1158 4352 
L 339 4352 
L 339 4185 
C 781 4185 851 4185 851 3898 
L 851 624 
C 851 465 851 166 339 166 
L 339 0 
C 486 12 755 12 915 12 
C 1075 12 1344 12 1491 0 
L 1491 166 
C 979 166 979 465 979 624 
L 979 4159 
L 986 4159 
L 2490 102 
C 2515 38 2528 0 2579 0 
C 2630 0 2643 38 2669 102 
L 4186 4191 
L 4192 4191 
L 4192 453 
C 4192 166 4122 166 3680 166 
L 3680 0 
C 3853 12 4198 12 4384 12 
C 4570 12 4922 12 5094 0 
L 5094 166 
C 4653 166 4582 166 4582 453 
L 4582 3898 
C 4582 4185 4653 4185 5094 4185 
L 5094 4352 
L 4282 4352 
C 4147 4352 4141 4345 4102 4249 
L 2720 516 
L 1338 4249 
z
" transform="scale(0.015625)"/>
      </defs>
      <use xlink:href="#CMR17-54" transform="scale(0.996264)"/>
      <use xlink:href="#CMR17-77" transform="translate(66.509881 0)scale(0.996264)"/>
      <use xlink:href="#CMR17-32" transform="translate(133.019761 0)scale(0.996264)"/>
      <use xlink:href="#CMR17-48" transform="translate(208.786205 0)scale(0.996264)"/>
      <use xlink:href="#CMR17-61" transform="translate(277.858634 0)scale(0.996264)"/>
      <use xlink:href="#CMR17-73" transform="translate(323.549111 0)scale(0.996264)"/>
      <use xlink:href="#CMR17-68" transform="translate(359.350449 0)scale(0.996264)"/>
      <use xlink:href="#CMR17-28" transform="translate(440.321785 0)scale(0.996264)"/>
      <use xlink:href="#CMR17-43" transform="translate(475.602553 0)scale(0.996264)"/>
      <use xlink:href="#CMR17-68" transform="translate(542.112434 0)scale(0.996264)"/>
      <use xlink:href="#CMR17-61" transform="translate(593.007803 0)scale(0.996264)"/>
      <use xlink:href="#CMR17-69" transform="translate(638.69828 0)scale(0.996264)"/>
      <use xlink:href="#CMR17-6e" transform="translate(663.569339 0)scale(0.996264)"/>
      <use xlink:href="#CMR17-29" transform="translate(714.464709 0)scale(0.996264)"/>
      <use xlink:href="#CMR17-4d" transform="translate(779.821443 0)scale(0.996264)"/>
      <use xlink:href="#CMR17-65" transform="translate(864.508383 0)scale(0.996264)"/>
      <use xlink:href="#CMR17-6d" transform="translate(904.994044 0)scale(0.996264)"/>
     </g>
    </g>
    <g id="line2d_45">
     <path d="M 66.6 112.243617 
L 76.6 112.243617 
L 86.6 112.243617 
" style="fill: none; stroke: #d2b48c; stroke-width: 1.5; stroke-linecap: square"/>
     <g>
      <use xlink:href="#m4588d7d434" x="76.6" y="112.243617" style="fill: #d2b48c; stroke: #d2b48c"/>
     </g>
    </g>
    <g id="text_15">
     <!-- Tw2 Sort (Chain) Disk -->
     <g transform="translate(94.6 115.743617)scale(0.1 -0.1)">
      <use xlink:href="#CMR17-54" transform="scale(0.996264)"/>
      <use xlink:href="#CMR17-77" transform="translate(66.509881 0)scale(0.996264)"/>
      <use xlink:href="#CMR17-32" transform="translate(133.019761 0)scale(0.996264)"/>
      <use xlink:href="#CMR17-53" transform="translate(208.786205 0)scale(0.996264)"/>
      <use xlink:href="#CMR17-6f" transform="translate(259.681574 0)scale(0.996264)"/>
      <use xlink:href="#CMR17-72" transform="translate(305.372051 0)scale(0.996264)"/>
      <use xlink:href="#CMR17-74" transform="translate(340.652819 0)scale(0.996264)"/>
      <use xlink:href="#CMR17-28" transform="translate(406.009553 0)scale(0.996264)"/>
      <use xlink:href="#CMR17-43" transform="translate(441.290321 0)scale(0.996264)"/>
      <use xlink:href="#CMR17-68" transform="translate(507.800202 0)scale(0.996264)"/>
      <use xlink:href="#CMR17-61" transform="translate(558.695572 0)scale(0.996264)"/>
      <use xlink:href="#CMR17-69" transform="translate(604.386049 0)scale(0.996264)"/>
      <use xlink:href="#CMR17-6e" transform="translate(629.257107 0)scale(0.996264)"/>
      <use xlink:href="#CMR17-29" transform="translate(680.152477 0)scale(0.996264)"/>
      <use xlink:href="#CMR17-44" transform="translate(745.509211 0)scale(0.996264)"/>
      <use xlink:href="#CMR17-69" transform="translate(815.902767 0)scale(0.996264)"/>
      <use xlink:href="#CMR17-73" transform="translate(840.773825 0)scale(0.996264)"/>
      <use xlink:href="#CMR17-6b" transform="translate(876.575163 0)scale(0.996264)"/>
     </g>
    </g>
    <g id="line2d_46">
     <path d="M 66.6 127.206257 
L 76.6 127.206257 
L 86.6 127.206257 
" style="fill: none; stroke: #800000; stroke-width: 1.5; stroke-linecap: square"/>
     <g>
      <use xlink:href="#m454ff5397b" x="76.6" y="127.206257" style="fill: #800000; stroke: #800000"/>
     </g>
    </g>
    <g id="text_16">
     <!-- Tw2 Sort (Chain) Mem -->
     <g transform="translate(94.6 130.706257)scale(0.1 -0.1)">
      <use xlink:href="#CMR17-54" transform="scale(0.996264)"/>
      <use xlink:href="#CMR17-77" transform="translate(66.509881 0)scale(0.996264)"/>
      <use xlink:href="#CMR17-32" transform="translate(133.019761 0)scale(0.996264)"/>
      <use xlink:href="#CMR17-53" transform="translate(208.786205 0)scale(0.996264)"/>
      <use xlink:href="#CMR17-6f" transform="translate(259.681574 0)scale(0.996264)"/>
      <use xlink:href="#CMR17-72" transform="translate(305.372051 0)scale(0.996264)"/>
      <use xlink:href="#CMR17-74" transform="translate(340.652819 0)scale(0.996264)"/>
      <use xlink:href="#CMR17-28" transform="translate(406.009553 0)scale(0.996264)"/>
      <use xlink:href="#CMR17-43" transform="translate(441.290321 0)scale(0.996264)"/>
      <use xlink:href="#CMR17-68" transform="translate(507.800202 0)scale(0.996264)"/>
      <use xlink:href="#CMR17-61" transform="translate(558.695572 0)scale(0.996264)"/>
      <use xlink:href="#CMR17-69" transform="translate(604.386049 0)scale(0.996264)"/>
      <use xlink:href="#CMR17-6e" transform="translate(629.257107 0)scale(0.996264)"/>
      <use xlink:href="#CMR17-29" transform="translate(680.152477 0)scale(0.996264)"/>
      <use xlink:href="#CMR17-4d" transform="translate(745.509211 0)scale(0.996264)"/>
      <use xlink:href="#CMR17-65" transform="translate(830.196152 0)scale(0.996264)"/>
      <use xlink:href="#CMR17-6d" transform="translate(870.681812 0)scale(0.996264)"/>
     </g>
    </g>
    <g id="line2d_47">
     <path d="M 66.6 142.168897 
L 76.6 142.168897 
L 86.6 142.168897 
" style="fill: none; stroke: #ff8c00; stroke-width: 1.5; stroke-linecap: square"/>
     <g>
      <use xlink:href="#mddc59964ab" x="76.6" y="142.168897" style="fill: #ff8c00; stroke: #ff8c00"/>
     </g>
    </g>
    <g id="text_17">
     <!-- Tw2 Sort (Simple) Mem -->
     <g transform="translate(94.6 145.668897)scale(0.1 -0.1)">
      <defs>
       <path id="CMR17-70" d="M 1408 -1114 
C 998 -1114 973 -1088 973 -834 
L 973 380 
C 1158 109 1427 -64 1766 -64 
C 2406 -64 3053 503 3053 1382 
C 3053 2196 2496 2816 1837 2816 
C 1453 2816 1139 2603 960 2345 
L 960 2816 
L 198 2745 
L 198 2577 
C 576 2577 634 2539 634 2228 
L 634 -834 
C 634 -1081 608 -1114 198 -1114 
L 198 -1280 
C 352 -1268 634 -1268 800 -1268 
C 966 -1268 1254 -1268 1408 -1280 
L 1408 -1114 
z
M 973 2015 
C 973 2106 973 2241 1222 2481 
C 1254 2506 1472 2700 1792 2700 
C 2259 2700 2643 2112 2643 1376 
C 2643 639 2234 38 1728 38 
C 1498 38 1248 148 1056 451 
C 973 594 973 632 973 736 
L 973 2015 
z
" transform="scale(0.015625)"/>
      </defs>
      <use xlink:href="#CMR17-54" transform="scale(0.996264)"/>
      <use xlink:href="#CMR17-77" transform="translate(66.509881 0)scale(0.996264)"/>
      <use xlink:href="#CMR17-32" transform="translate(133.019761 0)scale(0.996264)"/>
      <use xlink:href="#CMR17-53" transform="translate(208.786205 0)scale(0.996264)"/>
      <use xlink:href="#CMR17-6f" transform="translate(259.681574 0)scale(0.996264)"/>
      <use xlink:href="#CMR17-72" transform="translate(305.372051 0)scale(0.996264)"/>
      <use xlink:href="#CMR17-74" transform="translate(340.652819 0)scale(0.996264)"/>
      <use xlink:href="#CMR17-28" transform="translate(406.009553 0)scale(0.996264)"/>
      <use xlink:href="#CMR17-53" transform="translate(441.290321 0)scale(0.996264)"/>
      <use xlink:href="#CMR17-69" transform="translate(492.185691 0)scale(0.996264)"/>
      <use xlink:href="#CMR17-6d" transform="translate(517.056749 0)scale(0.996264)"/>
      <use xlink:href="#CMR17-70" transform="translate(593.976339 0)scale(0.996264)"/>
      <use xlink:href="#CMR17-6c" transform="translate(644.871709 0)scale(0.996264)"/>
      <use xlink:href="#CMR17-65" transform="translate(669.742768 0)scale(0.996264)"/>
      <use xlink:href="#CMR17-29" transform="translate(710.228428 0)scale(0.996264)"/>
      <use xlink:href="#CMR17-4d" transform="translate(775.585162 0)scale(0.996264)"/>
      <use xlink:href="#CMR17-65" transform="translate(860.272103 0)scale(0.996264)"/>
      <use xlink:href="#CMR17-6d" transform="translate(900.757763 0)scale(0.996264)"/>
     </g>
    </g>
   </g>
  </g>
 </g>
 <defs>
  <clipPath id="p664f3d4e6c">
   <rect x="57.6" y="41.472" width="357.12" height="266.112"/>
  </clipPath>
 </defs>
</svg>
